<svg xmlns="http://www.w3.org/2000/svg" xmlns:xlink="http://www.w3.org/1999/xlink" viewBox="0 0 286 36"><style type="text/css">.st0{fill:none}.st1{clip-path:url(#SVGID_2_)}.st2{fill:#547dbf}.st3{fill:url(#SVGID_3_)}.st4{fill:url(#SVGID_4_)}.st5{fill:#2d3079;fill-opacity:.1}.st6{fill:#ffce40}.st7{fill:url(#SVGID_5_)}.st8{fill:#db4436}.st9{fill:url(#SVGID_6_)}.st10{fill:url(#SVGID_7_)}.st11{fill:#3e2723;fill-opacity:5.000000e-02}.st12{clip-path:url(#SVGID_9_)}.st13{fill:#eee}.st14{clip-path:url(#SVGID_11_)}.st15{fill:#fff;fill-opacity:.4}.st16,.st17{fill:#262626;fill-opacity:5.000000e-02}.st17{fill:#be3a26}.st18{fill:#262626;fill-opacity:.1}.st19{clip-path:url(#SVGID_2_);fill:url(#SVGID_12_)}.st20{fill:#fff;fill-opacity:.2}.st23{fill:url(#SVGID_13_)}.st24{opacity:.54}.st25{fill:none}.st25,.st26{clip-path:url(#SVGID_15_)}</style><symbol id="logo_x5F_dark" viewBox="0 -136 416 136"><path d="M0.7-52.6C0.7-23.6 25-0.1 54-0.1c16 0 27.4-6.3 36-14.5L79.8-24.7C73.7-18.9 65.4-14.4 54-14.4c-21.1 0-37.6-17-37.6-38.1 0-21.1 16.5-38.1 37.6-38.1 13.7 0 21.5 5.5 26.5 10.5 4.1 4.1 6.8 10 7.8 18H54v14.3h48.3c0.5-2.6 0.8-5.6 0.8-9 0-10.8-2.9-24.1-12.4-33.5C81.4-99.9 69.6-105 54-105 25-105 0.7-81.5 0.7-52.6zM142-37.5c-18.7 0-33.9-14.2-33.9-33.8 0-19.5 15.2-33.8 33.9-33.8 18.7 0 33.9 14.3 33.9 33.8C175.9-51.7 160.7-37.5 142-37.5zM142-91.7c-10.2 0-19.1 8.4-19.1 20.5 0 12.2 8.8 20.5 19.1 20.5 10.2 0 19.1-8.3 19.1-20.5C161.1-83.3 152.2-91.7 142-91.7zM216-37.5c-18.7 0-33.9-14.2-33.9-33.8 0-19.5 15.2-33.8 33.9-33.8 18.7 0 33.9 14.3 33.9 33.8C249.9-51.7 234.7-37.5 216-37.5zM216-91.7c-10.2 0-19.1 8.4-19.1 20.5 0 12.2 8.8 20.5 19.1 20.5s19.1-8.3 19.1-20.5C235.1-83.3 226.2-91.7 216-91.7zM306.8-39.5V-45h-0.5c-3.3 4-9.7 7.6-17.8 7.6 -16.9 0-32.4-14.8-32.4-33.9 0-18.9 15.5-33.7 32.4-33.7 8.1 0 14.5 3.6 17.8 7.7h0.5v-4.9c0-12.9-6.9-19.8-18-19.8 -9.1 0-14.7 6.5-17 12l-12.9-5.4c3.7-9 13.6-20 30-20 17.4 0 32.1 10.2 32.1 35.2v60.7H306.8zM289.8-91.7c-10.2 0-18.8 8.6-18.8 20.4 0 11.9 8.6 20.6 18.8 20.6 10.1 0 18-8.7 18-20.6C307.9-83.2 299.9-91.7 289.8-91.7z"/><polygon points="346 -103 331.2 -103 331.2 -3.7 346 -3.7"/><path d="M386.7-91.7c-7.6 0-12.9 3.5-16.4 10.2l45.2 18.7L414-59c-2.8 7.6-11.4 21.5-28.9 21.5 -17.4 0-31.9-13.7-31.9-33.8 0-18.9 14.3-33.8 33.5-33.8 15.5 0 24.4 9.5 28.2 15l-11.5 7.7C399.5-88 394.3-91.7 386.7-91.7zM385.6-50.5c5.9 0 10.9-2.9 12.5-7.2l-30.2-12.5C367.5-57.2 378-50.5 385.6-50.5z"/><polygon points="0 -136 416 -136 416 0 0 0" class="st0"/></symbol><rect width="283.3" height="36.9" x="1.2" y="-.1" class="st0"/><defs><path id="SVGID_1_" d="M35.5 17.2l-4.6-8.1 -2.9-5C27.6 3.5 26.9 3 26 3H11c-0.8 0-1.6 0.4-2 1.2l-4.6 8.1 -2.9 5c-0.4 0.7-0.4 1.6 0 2.3L9 32.6c0.4 0.7 1.2 1.2 2 1.2h15c0.8 0 1.6-0.4 2-1.2l7.5-13.1C35.9 18.8 35.9 18 35.5 17.2zM18.4 23c-2.5 0-4.6-2.1-4.6-4.6s2.1-4.6 4.6-4.6 4.6 2.1 4.6 4.6S21 23 18.4 23z"/></defs><clipPath id="SVGID_2_"><use xlink:href="#SVGID_1_"/></clipPath><g class="st1"><path d="M13.2 9.2h17.7l-2.9-5C27.6 3.5 26.9 3 26 3H11c-0.8 0-1.6 0.4-2 1.2l-4.6 8.1 8.8 15.3V9.2z" class="st2"/><linearGradient id="SVGID_3_" x1="7.566" x2="15.222" y1="17.777" y2="13.347" gradientUnits="userSpaceOnUse"><stop offset="0" style="stop-color:#2d3079;stop-opacity:.2"/><stop offset=".66" style="stop-color:#2d3079;stop-opacity:0"/></linearGradient><path d="M13.2 9.2h17.7l-2.9-5C27.6 3.5 26.9 3 26 3H11c-0.8 0-1.6 0.4-2 1.2l-4.6 8.1 8.8 15.3V9.2z" class="st3"/><linearGradient id="SVGID_4_" x1="3.678" x2="8.196" y1="12.932" y2="17.449" gradientUnits="userSpaceOnUse"><stop offset="0" style="stop-color:#2d3079;stop-opacity:.2"/><stop offset="1" style="stop-color:#2d3079;stop-opacity:4.000000e-02"/></linearGradient><polygon points="4.4 12.3 8.9 16.7 8.1 18.8" class="st4"/><polygon points="8.3 18.7 4.9 12.8 4.4 12.3 8.1 18.8" class="st5"/><path d="M13.2 27.6L4.4 12.3l-2.9 5c-0.4 0.7-0.4 1.6 0 2.3L9 32.6c0.4 0.7 1.2 1.2 2 1.2h9.3l8.9-15.4L13.2 27.6z" class="st6"/><linearGradient id="SVGID_5_" x1="23.497" x2="15.911" y1="28.256" y2="23.814" gradientUnits="userSpaceOnUse"><stop offset="0" style="stop-color:#be3a26;stop-opacity:.15"/><stop offset=".66" style="stop-color:#be3a26;stop-opacity:0"/></linearGradient><path d="M13.2 27.6L4.4 12.3l-2.9 5c-0.4 0.7-0.4 1.6 0 2.3L9 32.6c0.4 0.7 1.2 1.2 2 1.2h9.3l8.9-15.4L13.2 27.6z" class="st7"/><path d="M30.9 9.2H13.2l15.9 9.2 -8.9 15.4H26c0.8 0 1.6-0.4 2-1.2l7.5-13.1c0.4-0.7 0.4-1.6 0-2.3L30.9 9.2z" class="st8"/><linearGradient id="SVGID_6_" x1="24.528" x2="24.528" y1="9.404" y2="18.202" gradientUnits="userSpaceOnUse"><stop offset="0" style="stop-color:#a52822;stop-opacity:.2"/><stop offset=".66" style="stop-color:#a52822;stop-opacity:0"/></linearGradient><path d="M30.9 9.2H13.2l15.9 9.2 -8.9 15.4H26c0.8 0 1.6-0.4 2-1.2l7.5-13.1c0.4-0.7 0.4-1.6 0-2.3L30.9 9.2z" class="st9"/><linearGradient id="SVGID_7_" x1="18.701" x2="30.012" y1="18.095" y2="29.406" gradientUnits="userSpaceOnUse"><stop offset="0" style="stop-color:#3e2723;stop-opacity:.15"/><stop offset="1" style="stop-color:#3e2723;stop-opacity:0"/></linearGradient><polygon points="23.8 9.2 35.8 21.2 35.8 33.8 20.3 33.8 23.8 27.6" class="st10"/><rect width="7.5" height=".2" x="23.7" y="9.2" class="st11"/></g><g class="st1"><defs><path id="SVGID_8_" d="M30.9 9.2H13.2l15.9 9.2 -8.9 15.4H26c0.8 0 1.6-0.4 2-1.2l7.5-13.1c0.4-0.7 0.4-1.6 0-2.3L30.9 9.2z"/></defs><clipPath id="SVGID_9_"><use xlink:href="#SVGID_8_"/></clipPath><g class="st12"><path d="M23.8 9.2l5.3 9.2 -5.3 9.2H13.2l-5.3-9.2 5.3-9.2H23.8" class="st13"/></g><g class="st12"><path d="M13.2 9.2h17.7l-2.9-5C27.6 3.5 26.9 3 26 3H11c-0.8 0-1.6 0.4-2 1.2l-4.6 8.1 8.8 15.3V9.2z" class="st2"/></g></g><g class="st1"><defs><path id="SVGID_10_" d="M13.2 27.6L4.4 12.3l-2.9 5c-0.4 0.7-0.4 1.6 0 2.3L9 32.6c0.4 0.7 1.2 1.2 2 1.2h9.3l8.9-15.4L13.2 27.6z"/></defs><clipPath id="SVGID_11_"><use xlink:href="#SVGID_10_"/></clipPath><g class="st14"><path d="M23.8 9.2l5.3 9.2 -5.3 9.2H13.2l-5.3-9.2 5.3-9.2H23.8" class="st13"/></g></g><g class="st1"><path d="M23.8 9.2l5.3 9.2 -5.3 9.2H13.2l-5.3-9.2 5.3-9.2H23.8" class="st13"/><polygon points="23.8 9.4 29 18.4 29.2 18.4 23.8 9.2 13.2 9.2 7.9 18.4 8 18.4 13.2 9.4" class="st15"/><polygon points="29 18.4 23.8 27.4 13.2 27.4 8 18.4 7.9 18.4 13.2 27.6 23.8 27.6 29.2 18.4" class="st16"/><polygon points="29.2 18.4 23.8 27.6 13.2 27.6 7.9 18.4 7.9 18.6 13.2 27.8 23.8 27.8 29.2 18.6" class="st17"/><path d="M18.4 13.6c-2.5 0-4.6 2.1-4.6 4.6h9.2C23.1 15.7 21 13.6 18.4 13.6zM13.8 18.6c0 2.5 2.1 4.6 4.6 4.6s4.6-2.1 4.6-4.6H13.8z" class="st18"/></g><linearGradient id="SVGID_12_" x1="18.533" x2="18.533" y1="27.618" y2="33.738" gradientUnits="userSpaceOnUse"><stop offset="0" style="stop-color:#3e2723;stop-opacity:.15"/><stop offset=".035" style="stop-color:#462823;stop-opacity:.1447"/><stop offset=".252" style="stop-color:#712e24;stop-opacity:.1122"/><stop offset=".463" style="stop-color:#923325;stop-opacity:8.062769e-02"/><stop offset=".662" style="stop-color:#aa3726;stop-opacity:5.071827e-02"/><stop offset=".846" style="stop-color:#b93926;stop-opacity:2.311477e-02"/><stop offset="1" style="stop-color:#be3a26;stop-opacity:0"/></linearGradient><polygon points="13.2 27.6 19.4 33.8 20.3 33.8 23.8 27.6" class="st19"/><g class="st1"><path d="M4.4 12.5L9 4.4c0.4-0.7 1.2-1.2 2-1.2h15c0.8 0 1.6 0.4 2 1.2l2.9 5 4.6 8.1c0.2 0.3 0.3 0.7 0.3 1.1 0-0.4-0.1-0.9-0.3-1.2l-4.6-8.1 -2.9-5C27.6 3.5 26.9 3 26 3H11c-0.8 0-1.6 0.4-2 1.2l-4.6 8.1 -2.9 5c-0.2 0.4-0.3 0.8-0.3 1.2 0-0.4 0.1-0.7 0.3-1.1L4.4 12.5zM11 33.6c-0.8 0-1.6-0.4-2-1.2l-4.6-8.1 -2.9-5c-0.2-0.3-0.3-0.7-0.3-1.1 0 0.4 0.1 0.9 0.3 1.2l2.9 5L9 32.6c0.4 0.7 1.2 1.2 2 1.2h9.3l0.1-0.2H11zM35.8 18.3c0 0.4-0.1 0.7-0.3 1.1l-4.6 8.1 -2.9 5c-0.4 0.7-1.2 1.2-2 1.2h-5.6l-0.1 0.2H26c0.8 0 1.6-0.4 2-1.2l2.9-5 4.6-8.1C35.7 19.2 35.8 18.7 35.8 18.3z" class="st20"/></g><radialGradient id="SVGID_13_" cx="9.863" cy="3.529" r="34.568" gradientTransform="matrix(6.457271e-03 0 0 6.457271e-03 2212.6196 -4568.3096)" gradientUnits="userSpaceOnUse"><stop offset="0" style="stop-color:#fff;stop-opacity:.1"/><stop offset="1" style="stop-color:#fff;stop-opacity:0"/></radialGradient><path d="M35.5 17.2l-4.6-8.1 -2.9-5C27.6 3.5 26.9 3 26 3H11c-0.8 0-1.6 0.4-2 1.2l-4.6 8.1 -2.9 5c-0.4 0.7-0.4 1.6 0 2.3L9 32.6c0.4 0.7 1.2 1.2 2 1.2h15c0.8 0 1.6-0.4 2-1.2l7.5-13.1C35.9 18.8 35.9 18 35.5 17.2zM18.4 23c-2.5 0-4.6-2.1-4.6-4.6s2.1-4.6 4.6-4.6 4.6 2.1 4.6 4.6S21 23 18.4 23z" class="st23"/><rect width="34.6" height="36.9" x="1.2" y="-.1" class="st0"/><g class="st24"><defs><rect id="SVGID_14_" width="239.5" height="36.9" x="45.1" y="-.1" class="st24"/></defs><clipPath id="SVGID_15_"><use xlink:href="#SVGID_14_"/></clipPath><rect width="239.5" height="26.1" x="45.1" y="7.8" class="st25"/><g class="st26"><path d="M130.5 18.8c0-5.2 4-9.2 9.2-9.2 2.7 0 4.9 1.1 6.5 2.9l-1.6 1.5c-1.2-1.5-2.9-2.2-4.9-2.2 -3.7 0-6.8 2.7-6.8 7s3.1 7 6.8 7c2.2 0 4.1-1 5.4-2.6l1.6 1.6c-1.5 1.8-4 3.1-7 3.1C134.5 28 130.5 24.1 130.5 18.8zM148.4 27.6V10h2.3v17.6H148.4zM164.8 21.6c0 3.7-2.6 6.4-6.2 6.4 -3.6 0-6.2-2.8-6.2-6.4 0-3.7 2.6-6.4 6.2-6.4C162.2 15.2 164.8 17.9 164.8 21.6zM162.5 21.6c0-2.8-1.9-4.4-3.9-4.4 -2 0-3.9 1.6-3.9 4.4 0 2.8 1.9 4.4 3.9 4.4C160.6 25.9 162.5 24.3 162.5 21.6zM175 27.6v-1.7h-0.1c-0.7 1.1-2.2 2.1-3.8 2.1 -3.1 0-4.6-2.1-4.6-5.1v-7.4h2.3v7c0 2.5 1.3 3.4 3 3.4 2 0 3.2-1.9 3.2-3.7v-6.6h2.3v12.1H175zM179 21.6c0-3.7 2.7-6.4 5.7-6.4 1.9 0 3.4 1 4.1 2.1h0.1l-0.1-1.7V10h2.3v17.6H189v-1.7h-0.1c-0.7 1.1-2.2 2.1-4.1 2.1C181.7 28 179 25.3 179 21.6zM189 21.6c0-2.8-1.8-4.4-3.8-4.4 -2 0-3.8 1.6-3.8 4.4 0 2.7 1.8 4.4 3.8 4.4C187.1 25.9 189 24.3 189 21.6zM197.3 27.6V10h6c2.9 0 5.5 2.2 5.5 5.2s-2.6 5.2-5.5 5.2h-3.7v7.1H197.3zM203.4 18.3c2 0 3.1-1.7 3.1-3.1 0-1.4-1.1-3.1-3.1-3.1h-3.8v6.2H203.4zM210.4 27.6V10h2.3v17.6H210.4zM214.6 24c0-2.7 2.5-4.2 5.3-4.2 1.6 0 2.8 0.5 3.3 0.7v-0.3c0-1.8-1.5-2.9-3.1-2.9 -1.3 0-2.5 0.6-2.9 1.7l-2.1-0.9c0.4-1.1 1.9-2.9 4.9-2.9 3 0 5.4 1.8 5.4 5.2v7.3h-2.2v-1.7h-0.1c-0.7 1-1.9 2.1-4 2.1C216.7 28 214.6 26.5 214.6 24zM223.2 22.4c0 0-1-0.8-2.9-0.8 -2.4 0-3.3 1.3-3.3 2.4 0 1.3 1.3 1.9 2.5 1.9C221.3 25.9 223.2 24.4 223.2 22.4zM228.6 24v-6.3h-2.1v-2.1h2.1v-3.7h2.3v3.7h3v2.1h-3v6.2c0 1.4 0.6 2 1.6 2 0.4 0 0.7 0 1-0.2l0.8 1.9c-0.5 0.2-1.1 0.3-1.8 0.3C230 27.8 228.6 26.4 228.6 24zM243.3 10.2l-0.8 1.9c-0.3-0.1-0.6-0.2-1-0.2 -1.1 0-2 0.7-2 2.1v1.5h3.1v2.1h-3.1v10h-2.3v-10H235v-2.1h2.3V14c0-2.5 1.7-4.1 4.3-4.1C242.3 9.9 242.8 10 243.3 10.2zM255.7 21.6c0 3.7-2.6 6.4-6.2 6.4 -3.6 0-6.2-2.8-6.2-6.4 0-3.7 2.6-6.4 6.2-6.4C253.1 15.2 255.7 17.9 255.7 21.6zM253.4 21.6c0-2.8-1.9-4.4-3.9-4.4 -2 0-3.9 1.6-3.9 4.4 0 2.8 1.9 4.4 3.9 4.4C251.5 25.9 253.4 24.3 253.4 21.6zM257.5 27.6V15.6h2.2v2h0.1c0.5-1.4 2.2-2.3 3.5-2.3 0.7 0 1.2 0.1 1.7 0.3l-0.9 2.1c-0.3-0.1-0.7-0.2-1.2-0.2 -1.6 0-3.1 1.3-3.1 3.5v6.6H257.5zM266.2 15.6h2.2v1.7h0.1c0.7-1.2 2.3-2.1 3.7-2.1 1.9 0 3.2 0.9 3.8 2.3 0.9-1.4 2.3-2.3 4.2-2.3 3 0 4.3 2.1 4.3 5.1v7.4h-2.3v-7c0-2.5-1-3.3-2.7-3.3 -1.8 0-3.1 1.9-3.1 3.7v6.7h-2.3v-7c0-2.5-1-3.3-2.7-3.3 -1.8 0-3.1 1.9-3.1 3.7v6.7h-2.3V15.6z"/></g><g class="st26"><use width="416" height="136" y="-136" transform="matrix(0.1922 0 0 -0.1922 45.0596 7.8192)" xlink:href="#logo_x5F_dark"/></g></g></svg>